<svg xmlns="http://www.w3.org/2000/svg" width="120" height="57" viewBox="0 0 120 57">
    <g fill="none" fill-rule="evenodd">
        <path d="M0 0h120v57H0z"/>
        <path fill="#FFF" d="M11.384 47.1h-1.45c-4.75 0-7.6-2.8-6.8-8l1.05-6.6h6.4l-.95 6.05c-.25 1.6.1 2.35 1.3 2.35 1.05 0 1.65-.75 2-2.7l.2-1.2c.4-2.4 0-3.5-1.65-6.1l-1.95-3.1c-2.4-3.7-3.35-6.45-2.7-10.25l.25-1.55c.8-4.95 3.3-7 7.85-7h1.45c5 0 7.05 2.45 6.25 7.65l-.7 4.45h-6.2l.7-4.45c.2-1.15-.05-1.95-1.25-1.95-1.15 0-1.35.75-1.5 1.8l-.2 1.3c-.3 2.1.05 2.65 1.5 5.05l2.05 3.3c2.55 4.15 3.75 6.9 3.2 10.55l-.3 1.9c-.9 5.65-3.75 8.5-8.55 8.5zM27.25 9.45H41L39.95 16H32.7l-1.3 8.1h5.8l-1.1 6.7h-5.8l-1.45 9.15h7.7l-1.1 6.7h-14.1l5.9-37.2zm16.816 0h6.45l-4.85 30.5h6.9l-1.1 6.7h-13.3l5.9-37.2zm15.967 0h6.45l-4.85 30.5h6.9l-1.1 6.7h-13.3l5.9-37.2zM77.767 37.8l4.5-28.35h6.65l-4.55 28.8c-.2 1.4.2 2.3 1.35 2.3 1.15 0 1.55-.75 1.8-2.3l4.55-28.8h6.65l-4.5 28.35c-1.05 6.65-3.45 9.4-8.25 9.4h-1.45c-4.95 0-7.7-3.35-6.75-9.4zm30.767-6.05h-3.75l-2.35 14.9h-6.45l5.9-37.2h8.55c5.45 0 6.95 2.75 6.15 7.35l-1.2 7.45c-.65 4.5-2.35 7.5-6.85 7.5zm-1.1-16.55l-1.65 10.5h1.35c1.35 0 1.6-.65 1.8-2l1-6.3c.2-1.35 0-2.2-1.35-2.2h-1.15z"/>
    </g>
</svg>
